<svg id="Layer_1" data-name="Layer 1" xmlns="http://www.w3.org/2000/svg" viewBox="0 0 453.54 283.46"><defs><style>.cls-1{fill:#fff;}</style></defs><path class="cls-1" d="M96.58,91.39c7.85,0,13.76,4.42,15.64,11.56h-8.83a7.26,7.26,0,0,0-6.9-4.23c-4.93,0-8.31,3.66-8.31,9.49s3.38,9.48,8.31,9.48a7.26,7.26,0,0,0,6.9-4.23h8.83C110.34,120.6,104.43,125,96.58,125,86.86,125,80,118.07,80,108.21S86.86,91.39,96.58,91.39Zm35.71,33.67a16.58,16.58,0,0,1-17-16.9c0-9.91,7.61-16.86,17-16.86a16.88,16.88,0,0,1,0,33.76Zm0-7.32c5.26,0,8.68-3.81,8.68-9.58s-3.42-9.58-8.68-9.58-8.74,3.71-8.74,9.58S126.93,117.74,132.29,117.74Zm50.63-26v33h-8L161.46,104.4v20.34h-8v-33h8l13.43,20.43V91.77Zm34.36,0v33h-8L195.82,104.4v20.34h-8v-33h8l13.43,20.43V91.77Zm25.1,6.43H230.21v6.67H241v6.2H230.21v7.23h12.17v6.44h-20.2v-33h20.2Zm18.77-6.81c7.84,0,13.76,4.42,15.64,11.56H268a7.26,7.26,0,0,0-6.9-4.23c-4.94,0-8.32,3.66-8.32,9.49s3.38,9.48,8.32,9.48a7.26,7.26,0,0,0,6.9-4.23h8.83C274.91,120.6,269,125,261.15,125c-9.72,0-16.58-6.9-16.58-16.76S251.43,91.39,261.15,91.39Zm17.16.38h25.51V98.2h-8.74v26.54h-8V98.2h-8.74Zm30.33,0h8v33h-8Zm42.62,0v33h-8L329.8,104.4v20.34h-8v-33h8l13.43,20.43V91.77Zm36.6,10.42H379c-1.22-2.2-3.47-3.38-6.48-3.38-5.16,0-8.59,3.67-8.59,9.4,0,6.1,3.47,9.67,9.25,9.67a7.89,7.89,0,0,0,8-5.82H371v-5.92h17.47v7.47A16.14,16.14,0,0,1,372.55,125c-9.86,0-16.81-6.9-16.81-16.76s6.9-16.82,16.76-16.82C380.39,91.39,386.12,95.43,387.86,102.19Z"/><path class="cls-1" d="M93.41,199.54c-7.09,0-12.63-3.52-12.87-10.19h8.55a3.78,3.78,0,0,0,4.09,3.76c2.35,0,3.85-1.17,3.85-3.1,0-6.1-16.49-2.82-16.39-14.51,0-6.25,5.12-9.72,12-9.72,7.19,0,12,3.57,12.35,9.86H96.32a3.57,3.57,0,0,0-3.8-3.43c-1.93-.05-3.38.94-3.38,3,0,5.73,16.29,3.14,16.29,14.18C105.43,194.94,101.11,199.54,93.41,199.54Z"/><path class="cls-1" d="M125,165.87c7.84,0,13.76,4.42,15.64,11.55h-8.83a7.27,7.27,0,0,0-6.91-4.22c-4.93,0-8.31,3.66-8.31,9.48s3.38,9.49,8.31,9.49a7.26,7.26,0,0,0,6.91-4.23h8.83c-1.88,7.14-7.8,11.51-15.64,11.51-9.72,0-16.58-6.9-16.58-16.77S115.31,165.87,125,165.87Z"/><path class="cls-1" d="M160.94,199.54a16.58,16.58,0,0,1-17-16.9c0-9.91,7.61-16.86,17-16.86a16.88,16.88,0,0,1,0,33.76Zm0-7.32c5.26,0,8.69-3.81,8.69-9.58s-3.43-9.58-8.69-9.58-8.74,3.71-8.74,9.58S155.58,192.22,160.94,192.22Z"/><path class="cls-1" d="M178.8,166.25h25.5v6.43h-8.74v26.53h-8V172.68H178.8Z"/><path class="cls-1" d="M217.16,166.25V193h10.52v6.19H209.13v-33Z"/><path class="cls-1" d="M252.45,193.39h-12.3l-2,5.82h-8.4l11.93-33H251l11.92,33h-8.5Zm-6.15-18.27-4,12.07h8.12Z"/><path class="cls-1" d="M294.85,166.25v33h-8l-13.43-20.33v20.33h-8v-33h8l13.43,20.43V166.25Z"/><path class="cls-1" d="M329.06,182.73c0,9.77-6.77,16.48-17.29,16.48H299.42v-33h12.35C322.29,166.25,329.06,172.92,329.06,182.73Zm-17.8,9.53c6.06,0,9.63-3.47,9.63-9.53s-3.57-9.63-9.63-9.63h-3.81v19.16Z"/><path class="cls-1" d="M402.4,76.86H200.46L257.82,54.8c9.81,16.06,35.14,9.09,35.14-10a19,19,0,1,0-37.67,3.41L180.85,76.86H67a3.27,3.27,0,0,0-3.26,3.27V136A3.26,3.26,0,0,0,67,139.27H240.77l-33.85,11.65H67.62a3.26,3.26,0,0,0-3.26,3.26v55.88a3.26,3.26,0,0,0,3.26,3.26H273l-65.64,22.59c-9.43-15.46-33.8-8.77-33.8,9.59,1.33,26.19,39.32,23,36.27-3l84.79-29.18h47.19a3.26,3.26,0,0,0,3.26-3.26V154.18a3.26,3.26,0,0,0-3.26-3.26H228.54l33.84-11.65h140a3.26,3.26,0,0,0,3.26-3.26V80.13A3.27,3.27,0,0,0,402.4,76.86ZM274,33.86a11,11,0,1,1-11,11A11,11,0,0,1,274,33.86Zm-82.15,222.6a11,11,0,1,1,11-11A11,11,0,0,1,191.81,256.46Zm146.72-99V206.8H70.88V157.44Zm60.61-24.69H70.3V83.39H399.14Z"/></svg>